# xmcd
#
# Track frame offsets:
#	151
#	21232
#	35620
#	48887
#	62230
#	78710
#	91259
#	108491
#	122631
#	137014
#	154626
#	164630
#	185612
#
# Disc length: 2857 seconds
#
# Revision: 0
# Processed by: cddbd v1.5.1PL0 Copyright (c) Steve Scherf et al.
# Submitted via: EasyCDDAExtractor 8.0.1.1
#
DISCID=af0b270d
DTITLE=Tuhatkauno - Aavaranta
DYEAR=2002
DGENRE=laulelma
TTITLE0=Viime vuosituhannen viimeiset vuodet
TTITLE1=Kesälaulu
TTITLE2=Kaislakadun tarinoita
TTITLE3=Kalininista Tveriin
TTITLE4=Timotei, sinä heiluva heinä
TTITLE5=Pertin hiihtoreissu
TTITLE6=Tulviiko Pielinen koskaan?
TTITLE7=Tuulentupa
TTITLE8=Sininen
TTITLE9=Sunnuntai-ilta
TTITLE10=Haassamme - Uti vår hage
TTITLE11=Etsijä
TTITLE12=Uimaharjun valot
EXTD=
EXTT0=
EXTT1=
EXTT2=
EXTT3=
EXTT4=
EXTT5=
EXTT6=
EXTT7=
EXTT8=
EXTT9=
EXTT10=
EXTT11=
EXTT12=
PLAYORDER=
